<?xml version="1.0" encoding="UTF-8"?>
<svg id="Livello_2" data-name="Livello 2" xmlns="http://www.w3.org/2000/svg" viewBox="0 0 87.77 90.35">
  <defs>
    <style>
      .cls-1 {
        fill: #24341b;
      }
    </style>
  </defs>
  <g id="Livello_1-2" data-name="Livello 1">
    <path class="cls-1" d="M69.76,49.38l-.12.6c11.75,3.43,17.53,13.98,17.53,23.43,0,11.08-7.29,16.33-14.58,16.33s-14.88-5.36-14.88-15.42c0-8.83,2.32-16.36,5.6-23.01,8.92-9.34,18.58-19.82,22.71-25.24,1.2-1.6,1.75-3.04,1.75-4.04,0-.9-.42-1.45-1.21-1.45-3.31,0-9.16,5.93-12.53,10.24-4.4,5.6-8.83,12.95-12.02,20.9-7.56,7.92-14.46,14.88-16.66,16.93-1.24,1.14-1.99,1.6-2.41,1.6-.27,0-.39-.18-.39-.51,0-.69.6-2.02,1.6-3.31,10.33-13.71,31.75-44.52,31.75-44.52l-.42-.48c-5.54,3.67-27.83,31.21-27.83,31.21-.86,1.14-1.8,2.24-2.78,3.31l-.09-22.36c0-11.23.24-20.42.73-27.58.12-1.64.68-2.84,1.68-3.6,1-.76,2.9-1.29,5.69-1.59v-.82h-19.48v.82c2.67.24,4.69.59,6.05,1.05,1.37.46,2.31,1.09,2.82,1.91s.83,1.96.96,3.41c.24,3.52.36,11.98.36,25.39l-.11,24.78s0,0,0,0L9.38,0H0v.82c2.18.24,3.96.79,5.33,1.64,1.37.85,2.05,1.85,2.05,3v40.87C2.98,49.83.42,54.55.42,58.96c0,9.76,11.21,13.13,19.58,13.13,10.6,0,18.98-7.11,28.01-19.04,0,0,18.79-22.65,26.33-29.94-5.54,7.65-20.3,29.16-30.24,42.29-1.21,1.6-2.56,3.8-2.56,4.94,0,.45.21.72.75.72.72,0,1.75-.36,3.43-1.93,2.26-2.11,8.58-8.46,15.66-15.84-2.59,6.87-4.28,14.13-4.28,21.02,0,10.42,7.83,16.02,15.48,16.02s15.18-5.48,15.18-16.93c0-9.7-5.9-20.48-18.01-24.04ZM74.01,34.2c3.16-4.4,9.31-13.01,12.5-13.01.54,0,.66.42.66.96,0,.78-.36,1.93-1.63,3.55-3.67,4.79-12.62,14.52-21.21,23.55,2.95-5.51,6.42-10.51,9.67-15.06ZM8.46,6.46l20.61,34.98c-1.53-.28-3.44-.44-5.82-.44-5.75,0-10.68,1.7-14.48,4.29l-.3-38.83ZM15.78,70.1c-7.05,0-14.76-3.31-14.76-11.15s8.92-17.35,22.23-17.35c2.69,0,4.73.22,6.27.6l10.67,18.12c-7.3,5.96-16.35,9.78-24.41,9.78Z"/>
  </g>
</svg>